Coordinates
version=1
nRows=8
nColumns=33
inDegrees=yes

Units are S.I. units (second, meters, Newtons, ...)
Angles are in degrees.

endheader
time	ground_thorax_rot_x	ground_thorax_rot_y	ground_thorax_rot_z	ground_thorax_tx	ground_thorax_ty	ground_thorax_tz	clav_prot_r	clav_elev_r	scapula_abduction_r	scapula_elevation_r	scapula_upward_rot_r	scapula_winging_r	shoulder_elv_r	plane_of_elev_r	axial_rot_r	elbow_flexion_r	pro_sup_r	wrist_flex_r	wrist_dev_r	clav_prot_l	clav_elev_l	scapula_abduction_l	scapula_elevation_l	scapula_upward_rot_l	scapula_winging_l	shoulder_elv_l	plane_of_elev_l	axial_rot_l	elbow_flexion_l	pro_sup_l	wrist_flex_l	wrist_dev_l
      2.08000000	      2.13417495	      6.65460587	     -3.07972263	     -0.15241459	      1.00518236	      0.01283393	    -18.72951006	    -12.12307628	    -24.16169592	     -7.64236557	      7.78273500	      4.08795069	     53.19805258	    -38.46897100	     37.34321180	     81.97262954	      4.37921293	      0.30517083	     14.99660672	     -0.58937353	     -3.13260079	     -2.43055524	     -3.88094871	     -2.06423548	      0.63498824	     46.65778301	    -39.88327835	    -19.53898863	     85.47890858	      2.14311367	      7.43299726	     -1.04802369
      2.09000000	      2.20224095	      6.71784858	     -3.14165831	     -0.15234773	      1.00543815	      0.01284800	    -18.64576877	    -12.56009166	    -23.97680676	     -8.03013084	      7.73865052	      4.32670463	     52.91113358	    -37.83790315	     36.85164610	     80.94308354	      4.23169170	     -0.19548073	     15.23128729	     -0.61328954	     -3.50028660	     -2.41593361	     -3.58847351	     -2.17129801	      0.53016347	     46.65908204	    -39.22786758	    -19.15605584	     85.02905881	      1.96697381	      7.64648127	     -0.60640442
      2.10000000	      2.19282013	      6.82135689	     -3.01022325	     -0.15261652	      1.00507029	      0.01295400	    -18.45624679	    -12.48790084	    -23.81546649	     -7.86180607	      7.47870129	      4.34178155	     52.22922452	    -36.67577023	     35.90063615	     79.74000061	      3.46665762	     -1.53224370	     16.39924246	     -0.59653313	     -3.59253315	     -2.30007600	     -3.66199256	     -2.56091241	      0.42132275	     47.00055041	    -38.18915823	    -19.00813909	     84.67577539	      1.37397729	      8.74123255	      0.69003176
      2.11000000	      2.23517888	      6.88325828	     -3.06996138	     -0.15255411	      1.00532066	      0.01296300	    -18.35773905	    -12.95355116	    -23.61931899	     -8.26731240	      7.40544261	      4.60458439	     51.93381307	    -35.99822858	     35.43227571	     78.52636433	      3.35694552	     -2.03179100	     16.62137413	     -0.61287288	     -3.96151874	     -2.29644435	     -3.36810301	     -2.66942028	      0.31601707	     47.00635388	    -37.52033686	    -18.59765458	     84.15103138	      1.24263428	      8.94126253	      1.10772030
      2.12000000	      2.20856448	      6.96522786	     -3.12046546	     -0.15257198	      1.00532210	      0.01298739	    -18.25071771	    -13.26226142	    -23.49786029	     -8.48585826	      7.21643822	      4.81102827	     51.39747833	    -35.03143507	     34.67098091	     77.13025707	      3.02131903	     -2.83704274	     17.22083800	     -0.62397201	     -4.20483251	     -2.26088850	     -3.20363606	     -2.81329562	      0.22328379	     47.09928624	    -36.67611494	    -18.20933463	     83.62608348	      0.99551341	      9.46328561	      1.78956048
      2.13000000	      2.23642412	      7.08695678	     -2.91418748	     -0.15292958	      1.00476356	      0.01304468	    -18.02652570	    -13.06600365	    -23.31287560	     -8.18790244	      6.92439507	      4.75798964	     50.84347709	    -33.67136751	     33.90295084	     75.64214845	      2.30274512	     -4.04244597	     18.49683603	     -0.56490906	     -4.21854838	     -2.16227178	     -3.39792304	     -3.32355641	      0.12604873	     47.38456901	    -35.42246174	    -18.02173696	     83.07764190	      0.50817586	     10.73670916	      3.13836454
      2.14000000	      2.26232992	      7.15566143	     -2.99556248	     -0.15285311	      1.00498728	      0.01304715	    -17.90166873	    -13.57186806	    -23.08985080	     -8.61853305	      6.81513274	      5.05308365	     50.57459229	    -32.94346787	     33.47877030	     74.17017035	      2.25724172	     -4.49067826	     18.68097690	     -0.56151933	     -4.61041333	     -2.18745428	     -3.09069813	     -3.45075605	      0.01614848	     47.40833438	    -34.69283859	    -17.57712840	     82.41701054	      0.42737696	     10.94968690	      3.55033818
      2.15000000	      2.24237927	      7.27549447	     -2.87289913	     -0.15310476	      1.00451236	      0.01305091	    -17.73174021	    -13.50867768	    -22.99671336	     -8.43347508	      6.48045828	      5.08097205	     50.00633375	    -31.51430722	     32.72140456	     72.38935589	      1.67327037	     -5.39600198	     19.80441706	     -0.51962058	     -4.65863721	     -2.06670567	     -3.25459282	     -3.96297630	     -0.09775098	     47.72614555	    -33.36679250	    -17.30088173	     81.74942889	      0.05736533	     12.13852688	      4.73837081
